%TF.GenerationSoftware,KiCad,Pcbnew,6.0.4-6f826c9f35~116~ubuntu22.04.1*%
%TF.CreationDate,2022-04-22T21:12:33+02:00*%
%TF.ProjectId,BRAMA,4252414d-412e-46b6-9963-61645f706362,rev?*%
%TF.SameCoordinates,Original*%
%TF.FileFunction,Soldermask,Bot*%
%TF.FilePolarity,Negative*%
%FSLAX46Y46*%
G04 Gerber Fmt 4.6, Leading zero omitted, Abs format (unit mm)*
G04 Created by KiCad (PCBNEW 6.0.4-6f826c9f35~116~ubuntu22.04.1) date 2022-04-22 21:12:33*
%MOMM*%
%LPD*%
G01*
G04 APERTURE LIST*
%ADD10C,5.000000*%
%ADD11R,2.600000X2.600000*%
%ADD12C,2.600000*%
%ADD13R,1.700000X1.700000*%
%ADD14O,1.700000X1.700000*%
%ADD15C,3.000000*%
%ADD16C,2.500000*%
%ADD17C,1.600000*%
%ADD18O,1.600000X1.600000*%
%ADD19R,3.000000X3.000000*%
%ADD20C,1.400000*%
%ADD21O,1.400000X1.400000*%
%ADD22R,1.500000X2.300000*%
%ADD23O,1.500000X2.300000*%
G04 APERTURE END LIST*
D10*
%TO.C,pad_3mm*%
X214503000Y-50292000D03*
%TD*%
%TO.C,pad_3mm*%
X214376000Y-129413000D03*
%TD*%
%TO.C,pad_3mm*%
X149098000Y-129540000D03*
%TD*%
%TO.C,pad_3mm*%
X149225000Y-50419000D03*
%TD*%
D11*
%TO.C,J1*%
X222834000Y-62103000D03*
D12*
X222834000Y-67183000D03*
X222834000Y-72263000D03*
X222834000Y-77343000D03*
X222834000Y-82423000D03*
X222834000Y-87503000D03*
X222834000Y-92583000D03*
X222834000Y-97663000D03*
X222834000Y-102743000D03*
X222834000Y-107823000D03*
%TD*%
D13*
%TO.C,J3*%
X155702000Y-56515000D03*
D14*
X155702000Y-59055000D03*
X155702000Y-61595000D03*
X155702000Y-64135000D03*
%TD*%
D15*
%TO.C,K5*%
X215383000Y-95885000D03*
D16*
X213433000Y-89835000D03*
D15*
X201233000Y-89835000D03*
X201183000Y-101885000D03*
D16*
X213433000Y-101835000D03*
%TD*%
D17*
%TO.C,F4*%
X203962000Y-67945000D03*
D18*
X203962000Y-57785000D03*
%TD*%
D17*
%TO.C,F3*%
X199390000Y-67945000D03*
D18*
X199390000Y-57785000D03*
%TD*%
D15*
%TO.C,K4*%
X178190000Y-95885000D03*
D16*
X180140000Y-101935000D03*
D15*
X192340000Y-101935000D03*
X192390000Y-89885000D03*
D16*
X180140000Y-89935000D03*
%TD*%
D19*
%TO.C,J4*%
X222885000Y-113030000D03*
D15*
X222885000Y-118110000D03*
X222885000Y-123190000D03*
X222885000Y-128270000D03*
%TD*%
D20*
%TO.C,F1*%
X215392000Y-123317000D03*
D21*
X210312000Y-123317000D03*
%TD*%
D13*
%TO.C,J2*%
X155321000Y-96774000D03*
D14*
X155321000Y-94234000D03*
X155321000Y-91694000D03*
X155321000Y-89154000D03*
%TD*%
D13*
%TO.C,J7*%
X167640000Y-83820000D03*
D14*
X167640000Y-86360000D03*
X167640000Y-88900000D03*
X167640000Y-91440000D03*
X167640000Y-93980000D03*
%TD*%
D15*
%TO.C,K1*%
X190250000Y-116940000D03*
D16*
X192750000Y-121940000D03*
D15*
X202750000Y-121940000D03*
D16*
X192750000Y-111940000D03*
%TD*%
D15*
%TO.C,J11*%
X161544000Y-56769000D03*
%TD*%
%TO.C,K2*%
X215383000Y-79629000D03*
D16*
X213433000Y-73579000D03*
D15*
X201233000Y-73579000D03*
X201183000Y-85629000D03*
D16*
X213433000Y-85579000D03*
%TD*%
D13*
%TO.C,J6*%
X178435000Y-127000000D03*
D14*
X178435000Y-124460000D03*
X178435000Y-121920000D03*
X178435000Y-119380000D03*
X178435000Y-116840000D03*
X178435000Y-114300000D03*
%TD*%
D22*
%TO.C,U3*%
X188595000Y-58420000D03*
D23*
X186055000Y-58420000D03*
X183515000Y-58420000D03*
%TD*%
D15*
%TO.C,K3*%
X178190000Y-79629000D03*
D16*
X180140000Y-85679000D03*
D15*
X192340000Y-85679000D03*
X192390000Y-73629000D03*
D16*
X180140000Y-73679000D03*
%TD*%
D13*
%TO.C,J5*%
X161290000Y-62865000D03*
D14*
X161290000Y-65405000D03*
X161290000Y-67945000D03*
%TD*%
M02*
