%TF.GenerationSoftware,KiCad,Pcbnew,6.0.4-6f826c9f35~116~ubuntu22.04.1*%
%TF.CreationDate,2022-04-22T21:12:32+02:00*%
%TF.ProjectId,BRAMA,4252414d-412e-46b6-9963-61645f706362,rev?*%
%TF.SameCoordinates,Original*%
%TF.FileFunction,Paste,Top*%
%TF.FilePolarity,Positive*%
%FSLAX46Y46*%
G04 Gerber Fmt 4.6, Leading zero omitted, Abs format (unit mm)*
G04 Created by KiCad (PCBNEW 6.0.4-6f826c9f35~116~ubuntu22.04.1) date 2022-04-22 21:12:32*
%MOMM*%
%LPD*%
G01*
G04 APERTURE LIST*
G04 Aperture macros list*
%AMRoundRect*
0 Rectangle with rounded corners*
0 $1 Rounding radius*
0 $2 $3 $4 $5 $6 $7 $8 $9 X,Y pos of 4 corners*
0 Add a 4 corners polygon primitive as box body*
4,1,4,$2,$3,$4,$5,$6,$7,$8,$9,$2,$3,0*
0 Add four circle primitives for the rounded corners*
1,1,$1+$1,$2,$3*
1,1,$1+$1,$4,$5*
1,1,$1+$1,$6,$7*
1,1,$1+$1,$8,$9*
0 Add four rect primitives between the rounded corners*
20,1,$1+$1,$2,$3,$4,$5,0*
20,1,$1+$1,$4,$5,$6,$7,0*
20,1,$1+$1,$6,$7,$8,$9,0*
20,1,$1+$1,$8,$9,$2,$3,0*%
G04 Aperture macros list end*
%ADD10RoundRect,0.250000X-0.325000X-0.450000X0.325000X-0.450000X0.325000X0.450000X-0.325000X0.450000X0*%
%ADD11RoundRect,0.250000X-0.450000X0.325000X-0.450000X-0.325000X0.450000X-0.325000X0.450000X0.325000X0*%
%ADD12R,1.900000X0.800000*%
%ADD13RoundRect,0.250001X-0.624999X0.462499X-0.624999X-0.462499X0.624999X-0.462499X0.624999X0.462499X0*%
%ADD14R,0.900000X0.800000*%
%ADD15RoundRect,0.250000X-0.400000X-1.450000X0.400000X-1.450000X0.400000X1.450000X-0.400000X1.450000X0*%
%ADD16RoundRect,0.250000X0.325000X0.450000X-0.325000X0.450000X-0.325000X-0.450000X0.325000X-0.450000X0*%
%ADD17R,2.750000X1.000000*%
%ADD18R,2.000000X1.500000*%
%ADD19R,2.000000X3.800000*%
%ADD20R,2.400000X1.100000*%
%ADD21O,2.400000X1.100000*%
%ADD22R,1.600000X3.000000*%
%ADD23R,1.200000X0.900000*%
%ADD24RoundRect,0.250000X0.450000X-0.325000X0.450000X0.325000X-0.450000X0.325000X-0.450000X-0.325000X0*%
%ADD25RoundRect,0.250001X0.462499X0.624999X-0.462499X0.624999X-0.462499X-0.624999X0.462499X-0.624999X0*%
%ADD26R,0.900000X1.200000*%
%ADD27R,0.800000X0.900000*%
%ADD28RoundRect,0.250001X0.624999X-0.462499X0.624999X0.462499X-0.624999X0.462499X-0.624999X-0.462499X0*%
G04 APERTURE END LIST*
D10*
%TO.C,R8*%
X207255000Y-65405000D03*
X209305000Y-65405000D03*
%TD*%
D11*
%TO.C,R2*%
X173355000Y-119380000D03*
X173355000Y-121430000D03*
%TD*%
D12*
%TO.C,Q2*%
X214146000Y-63058000D03*
X214146000Y-64958000D03*
X217146000Y-64008000D03*
%TD*%
D13*
%TO.C,C2*%
X182245000Y-117892500D03*
X182245000Y-120867500D03*
%TD*%
D14*
%TO.C,Q5*%
X172720000Y-99695000D03*
X172720000Y-101595000D03*
X174720000Y-100645000D03*
%TD*%
%TO.C,Q3*%
X209820000Y-67630000D03*
X209820000Y-69530000D03*
X211820000Y-68580000D03*
%TD*%
D15*
%TO.C,F2*%
X206690000Y-57150000D03*
X211140000Y-57150000D03*
%TD*%
D14*
%TO.C,Q4*%
X173260000Y-84775000D03*
X173260000Y-86675000D03*
X175260000Y-85725000D03*
%TD*%
D16*
%TO.C,R1*%
X170960000Y-104140000D03*
X168910000Y-104140000D03*
%TD*%
D17*
%TO.C,SW1*%
X209210000Y-114205000D03*
X214970000Y-114205000D03*
X209210000Y-118205000D03*
X214970000Y-118205000D03*
%TD*%
D18*
%TO.C,U2*%
X175235000Y-70245000D03*
X175235000Y-67945000D03*
D19*
X168935000Y-67945000D03*
D18*
X175235000Y-65645000D03*
%TD*%
D10*
%TO.C,R3*%
X190110000Y-128270000D03*
X192160000Y-128270000D03*
%TD*%
D20*
%TO.C,U1*%
X169925000Y-121710000D03*
D21*
X169925000Y-119710000D03*
X169925000Y-117710000D03*
X169925000Y-115710000D03*
X169925000Y-113710000D03*
X169925000Y-111710000D03*
X169925000Y-109710000D03*
X169925000Y-107710000D03*
X153925000Y-107710000D03*
X153925000Y-109710000D03*
X153925000Y-111710000D03*
X153925000Y-113710000D03*
X153925000Y-115710000D03*
X153925000Y-117710000D03*
X153925000Y-119710000D03*
X153925000Y-121710000D03*
%TD*%
D22*
%TO.C,C4*%
X168910000Y-61255000D03*
X168910000Y-56855000D03*
%TD*%
D11*
%TO.C,R12*%
X213995000Y-59055000D03*
X213995000Y-61105000D03*
%TD*%
D23*
%TO.C,D5*%
X194945000Y-68325000D03*
X194945000Y-65025000D03*
%TD*%
D24*
%TO.C,R5*%
X151130000Y-109610000D03*
X151130000Y-107560000D03*
%TD*%
D25*
%TO.C,C1*%
X166370000Y-104140000D03*
X163395000Y-104140000D03*
%TD*%
D11*
%TO.C,R6*%
X175260000Y-115425000D03*
X175260000Y-117475000D03*
%TD*%
D10*
%TO.C,R9*%
X171305000Y-81915000D03*
X173355000Y-81915000D03*
%TD*%
%TO.C,R10*%
X170670000Y-97155000D03*
X172720000Y-97155000D03*
%TD*%
%TO.C,R11*%
X207500000Y-106045000D03*
X209550000Y-106045000D03*
%TD*%
D26*
%TO.C,D3*%
X171705000Y-93980000D03*
X175005000Y-93980000D03*
%TD*%
D23*
%TO.C,D2*%
X183515000Y-108205000D03*
X183515000Y-111505000D03*
%TD*%
D22*
%TO.C,C3*%
X175260000Y-61255000D03*
X175260000Y-56855000D03*
%TD*%
D10*
%TO.C,R4*%
X208280000Y-61595000D03*
X210330000Y-61595000D03*
%TD*%
D27*
%TO.C,Q1*%
X195265000Y-128365000D03*
X197165000Y-128365000D03*
X196215000Y-126365000D03*
%TD*%
D14*
%TO.C,Q6*%
X212360000Y-105730000D03*
X212360000Y-107630000D03*
X214360000Y-106680000D03*
%TD*%
D16*
%TO.C,R7*%
X161925000Y-101600000D03*
X159875000Y-101600000D03*
%TD*%
D28*
%TO.C,C5*%
X165100000Y-65205000D03*
X165100000Y-62230000D03*
%TD*%
D23*
%TO.C,D1*%
X186690000Y-121920000D03*
X186690000Y-118620000D03*
%TD*%
D26*
%TO.C,D4*%
X175005000Y-78740000D03*
X171705000Y-78740000D03*
%TD*%
M02*
